<?xml version="1.0" encoding="UTF-8"?><svg id="Layer_2" xmlns="http://www.w3.org/2000/svg" viewBox="0 0 1035.87 157.31"><defs><style>.cls-1{fill:#0a0139;}</style></defs><g id="Layer_1-2"><path class="cls-1" d="M120.86,84.96c-.59-.19-1.18-.29-1.81-.39-.52-.09-1.37-.28-1.84-.42-.29-.08-.56-.19-.78-.3-.23-.5-.66-.89-1.2-1.07,0,0-.02,0-.02,0-.13-.18-.27-.34-.44-.48.71-3.09,1.07-6.28,1.07-9.49s-.36-6.4-1.07-9.49c.17-.14.32-.3.44-.48,0,0,.01,0,.01,0,.55-.18.98-.57,1.21-1.07.23-.1.5-.21.79-.3.47-.14,1.32-.33,1.84-.42.59-.1,1.21-.2,1.81-.4,2.67-.87,3.38-2.8,2.92-4.21-.39-1.21-1.61-1.99-3.1-1.99-.55,0-1.14.1-1.75.3-.59.19-1.15.47-1.7.74-.47.23-1.27.57-1.74.74-.28.1-.56.17-.81.22-.48-.27-1.07-.33-1.6-.16,0,0-.01,0-.02,0-.21-.07-.42-.12-.64-.13-2.14-5.01-5.18-9.5-9.04-13.37-.67-.67-1.38-1.34-2.12-1.98.06-.22.08-.44.08-.66,0,0,0,0,.01-.02.33-.46.45-1.03.34-1.57.12-.22.28-.47.46-.7.31-.4.88-1.06,1.25-1.43.42-.43.86-.88,1.23-1.38.7-.96,1.05-1.97,1.02-2.9-.03-.92-.45-1.73-1.13-2.23-.46-.33-1.02-.51-1.61-.51-.7,0-2.04.26-3.31,1.99-.36.5-.63,1.02-.94,1.6-.24.46-.69,1.2-.97,1.62-.15.21-.32.43-.53.65-.55.06-1.06.36-1.39.81h0c-.21.08-.41.17-.6.29-1.7-1.02-3.48-1.92-5.29-2.69-4.07-1.72-8.35-2.79-12.76-3.17-.08-.21-.19-.4-.32-.58v-.02c0-.57-.24-1.1-.64-1.47-.04-.29-.05-.58-.04-.84.01-.51.09-1.37.17-1.89.09-.6.18-1.21.18-1.85,0-2.03-1.07-4.09-3.1-4.09-1.5,0-3.1,1.28-3.1,4.09,0,.62.09,1.21.18,1.85.08.51.15,1.37.17,1.89,0,.25,0,.54-.04.83-.4.38-.65.91-.65,1.48h0c-.13.2-.24.39-.32.6-4.41.38-8.69,1.45-12.76,3.17-1.82.77-3.59,1.67-5.29,2.69-.19-.12-.39-.21-.6-.28,0,0,0,0,0,0-.33-.46-.84-.75-1.39-.82-.17-.19-.36-.41-.53-.65-.29-.42-.73-1.17-.97-1.63-.28-.54-.57-1.09-.94-1.6-1.26-1.73-2.61-1.99-3.31-1.99-.59,0-1.15.18-1.61.51-.69.5-1.1,1.31-1.13,2.23-.03.93.32,1.93,1.02,2.89.36.5.81.95,1.24,1.39.37.38.94,1.03,1.24,1.43.18.23.33.48.45.7-.11.54.01,1.11.34,1.57,0,0,.01.01.02.02,0,.22.02.45.08.66-.74.64-1.45,1.31-2.12,1.98-3.86,3.86-6.91,8.36-9.05,13.37-.22.01-.43.06-.64.13,0,0-.02,0-.02,0-.53-.17-1.12-.11-1.6.16-.25-.05-.53-.12-.81-.22-.47-.17-1.27-.51-1.74-.74-.54-.27-1.1-.55-1.7-.75-.61-.2-1.19-.3-1.74-.3-1.49,0-2.71.78-3.1,1.99-.26.81-.12,1.7.39,2.47.52.77,1.4,1.38,2.53,1.75.6.19,1.22.29,1.81.4.52.08,1.36.28,1.85.42.28.08.55.19.78.29.23.5.66.9,1.21,1.07,0,0,0,0,.01,0,.12.18.27.34.44.48-.71,3.1-1.07,6.29-1.07,9.49s.36,6.4,1.07,9.49c-.17.14-.32.3-.44.48,0,0-.01,0-.01,0-.55.18-.98.57-1.21,1.07-.22.1-.5.21-.78.3-.48.14-1.33.33-1.85.42-.63.11-1.22.21-1.81.4-2.67.87-3.39,2.8-2.92,4.21.39,1.21,1.61,1.99,3.1,1.99.55,0,1.14-.1,1.74-.3.59-.19,1.15-.47,1.71-.74.46-.23,1.26-.57,1.74-.74.29-.1.57-.17.81-.22.3.17.63.26.98.26.21,0,.42-.03.6-.1.01,0,.02,0,.03,0,.21.07.42.12.64.13,2.14,5.01,5.18,9.51,9.05,13.37.67.67,1.38,1.34,2.12,1.98-.06.21-.08.44-.08.66,0,0,0,.01,0,.01-.34.46-.46,1.04-.35,1.58-.12.22-.28.47-.46.7-.31.4-.87,1.05-1.24,1.43l-.03.03c-.42.42-.85.86-1.2,1.36-.7.96-1.05,1.96-1.02,2.9.03.92.45,1.73,1.13,2.23.46.34,1.02.51,1.61.51.69,0,2.05-.26,3.31-1.99.36-.49.64-1.03.92-1.56l.02-.04c.24-.46.68-1.2.97-1.63.17-.25.36-.47.53-.65.55-.07,1.06-.36,1.39-.81,0,0,0,0,.01-.02.21-.06.41-.16.6-.27,1.7,1.02,3.47,1.92,5.29,2.69,4.07,1.72,8.35,2.79,12.76,3.17.08.21.19.4.32.58v.02c0,.57.24,1.1.65,1.48.03.3.05.58.04.83-.01.51-.09,1.37-.17,1.9-.09.63-.18,1.22-.18,1.83,0,2.81,1.61,4.08,3.1,4.08,2.04,0,3.1-2.05,3.1-4.08,0-.64-.1-1.28-.18-1.85-.08-.52-.16-1.38-.17-1.89,0-.26,0-.54.04-.84.4-.38.64-.91.64-1.48v-.02c.13-.18.24-.37.32-.58,4.4-.38,8.69-1.45,12.76-3.17,1.81-.77,3.59-1.67,5.29-2.69.18.12.38.21.6.27,0,0,0,.01,0,.01.33.46.84.75,1.39.82.17.19.36.41.52.65.29.42.73,1.16.97,1.63l.03.05c.27.52.56,1.06.91,1.55,1.26,1.73,2.61,1.99,3.31,1.99.59,0,1.14-.17,1.6-.51,1.21-.88,1.76-2.86.11-5.13-.36-.5-.8-.95-1.23-1.39-.37-.37-.94-1.03-1.25-1.43-.18-.23-.33-.48-.46-.7.1-.54-.01-1.11-.35-1.58,0,0,0,0,0,0,0-.22-.02-.45-.08-.66.73-.64,1.45-1.3,2.12-1.98,3.87-3.86,6.91-8.36,9.04-13.37.22-.01.44-.06.64-.13h.01c.54.18,1.13.11,1.61-.15.24.05.52.12.81.22.48.17,1.28.51,1.76.76.54.27,1.09.54,1.68.73.61.2,1.19.3,1.74.3h0c1.49,0,2.71-.78,3.1-1.99.46-1.42-.26-3.35-2.93-4.22ZM76.39,102.25l.89-9.3c.07-.69-.11-1.39-.5-1.95.01-.1.02-.19.02-.29s0-.2-.02-.3c.33-.49.51-1.07.51-1.67,0-.45-.1-.9-.3-1.3.17-.3.27-.64.29-.99.31-.09.62-.19.93-.3.23.27.51.48.82.63.08.44.25.85.52,1.22.35.48.84.85,1.39,1.05.04.09.1.17.16.26.06.08.12.15.19.22.02.69.28,1.35.74,1.87l6.19,7c-.01.44.12.87.38,1.23,0,0,0,.02.01.02,0,.09,0,.17,0,.26-1.02.57-2.08,1.09-3.16,1.55-2.73,1.15-5.59,1.9-8.53,2.24-.04-.07-.09-.14-.14-.21v-.02c0-.45-.15-.88-.41-1.23ZM76.81,42.1c.05-.07.1-.13.14-.21,2.94.33,5.81,1.09,8.53,2.24,1.07.45,2.14.97,3.16,1.55,0,.08-.01.17,0,.26h0c-.26.37-.39.81-.39,1.25l-6.19,7c-.46.52-.72,1.19-.75,1.87-.07.07-.13.14-.19.22-.06.08-.12.17-.16.26-.56.2-1.04.56-1.39,1.04-.27.37-.45.79-.52,1.23-.31.15-.59.36-.82.62-.31-.11-.62-.21-.93-.3-.03-.35-.13-.68-.29-.99.19-.4.3-.84.3-1.29,0-.6-.18-1.18-.51-1.67.02-.1.02-.2.02-.3s0-.19-.02-.29c.39-.57.57-1.26.5-1.95l-.89-9.3c.27-.35.41-.77.41-1.23v-.02ZM101.5,60.04s-.01,0-.02,0c-.42.14-.78.41-1.03.77l-9.12,2.03c-.68.15-1.29.54-1.71,1.08-.1.01-.19.04-.28.07-.1.03-.19.07-.28.11-.56-.16-1.18-.16-1.74.03-.43.14-.82.37-1.14.68-.34-.06-.7-.05-1.03.03-.18-.27-.37-.53-.57-.79.19-.3.3-.63.35-.98.39-.21.73-.51,1-.88.35-.48.54-1.06.56-1.65.07-.07.13-.14.19-.23.06-.08.11-.16.16-.25.65-.23,1.2-.69,1.55-1.28l4.75-8.05c.42-.12.79-.39,1.06-.75h0c.08-.03.16-.06.24-.09.32.3.64.6.94.9,2.64,2.64,4.75,5.67,6.29,9.04-.06.06-.11.13-.16.2ZM102.32,79.02l-8.57-3.72c-.38-.16-.77-.25-1.18-.25-.28,0-.56.04-.83.12-.09-.04-.18-.08-.28-.11-.09-.03-.19-.05-.28-.07-.36-.47-.86-.82-1.43-1-.43-.14-.88-.18-1.32-.12-.23-.25-.52-.45-.85-.58,0-.17,0-.33,0-.49s0-.33,0-.49c.32-.13.61-.33.85-.58.45.06.9.02,1.32-.12.57-.19,1.06-.54,1.43-1,.1-.01.2-.04.29-.07.09-.03.18-.07.27-.11.66.19,1.38.15,2.01-.13l8.57-3.72c.41.14.87.15,1.3.01h0c.08.02.17.05.25.07.4,2.01.6,4.07.6,6.15s-.2,4.14-.6,6.15c-.08.02-.17.04-.25.07h0c-.43-.14-.89-.13-1.3,0ZM93.13,94.85l-4.75-8.05c-.35-.6-.91-1.06-1.55-1.29-.04-.08-.1-.17-.15-.24-.06-.08-.13-.16-.2-.23-.02-.59-.21-1.17-.56-1.65-.27-.37-.61-.66-1-.87-.04-.34-.16-.68-.35-.98.2-.26.39-.52.57-.79.34.08.69.09,1.03.03.32.31.71.54,1.14.68.56.18,1.18.19,1.74.03.09.04.18.08.28.11.09.03.19.05.28.07.42.54,1.02.93,1.7,1.07l9.13,2.03c.25.36.61.64,1.03.77,0,0,.01,0,.02,0,.05.07.1.14.16.21-1.54,3.36-3.66,6.4-6.29,9.04-.3.3-.62.6-.94.9-.08-.03-.15-.06-.23-.08,0,0,0,0-.01-.02-.26-.36-.64-.62-1.05-.75ZM93.5,96.56h0s0,0,0,0ZM69.93,103.49c-.05.07-.1.14-.14.21-2.94-.33-5.81-1.09-8.53-2.24-1.08-.46-2.14-.98-3.16-1.55,0-.08.01-.17,0-.26h0c.26-.37.39-.81.38-1.25l6.19-7c.46-.52.72-1.19.75-1.88.07-.07.13-.14.19-.22.06-.08.11-.17.16-.26.56-.2,1.04-.56,1.4-1.05.27-.37.44-.79.52-1.22.31-.15.59-.36.81-.63.31.11.62.21.93.3.03.35.13.68.29.99-.19.4-.3.84-.3,1.3,0,.6.18,1.18.51,1.67-.02.1-.02.2-.02.3s0,.19.02.29c-.38.57-.57,1.26-.5,1.95l.89,9.3c-.27.35-.41.77-.41,1.23v.02ZM70.34,43.34l-.89,9.3c-.07.7.11,1.39.5,1.96-.01.1-.02.19-.02.29s0,.2.02.3c-.33.49-.51,1.07-.51,1.66,0,.45.1.89.3,1.29-.16.3-.27.64-.29.99-.32.09-.63.19-.93.3-.23-.27-.5-.48-.82-.62-.08-.44-.25-.86-.52-1.22-.35-.49-.84-.85-1.4-1.05-.05-.09-.1-.17-.16-.25-.06-.08-.12-.15-.19-.23-.02-.68-.28-1.35-.74-1.87l-6.19-7c.01-.44-.12-.87-.39-1.24,0,0,0,0,0,0,0-.09,0-.17-.01-.26,1.03-.58,2.09-1.1,3.16-1.55,2.72-1.15,5.59-1.91,8.53-2.24.04.07.09.14.14.21v.02c0,.45.15.88.42,1.22ZM61.82,63.08c.04.34.16.68.35.98-.2.25-.39.52-.57.79-.19-.05-.39-.07-.59-.07-.15,0-.3.01-.45.04-.32-.31-.71-.54-1.14-.68-.56-.18-1.18-.19-1.74-.02-.09-.05-.18-.08-.28-.11-.09-.03-.19-.06-.28-.07-.42-.54-1.02-.93-1.7-1.08l-9.12-2.03c-.25-.36-.61-.63-1.03-.77,0,0-.01,0-.02,0-.05-.07-.1-.14-.16-.2,1.54-3.36,3.66-6.4,6.29-9.04.3-.3.61-.6.94-.9.07.03.15.06.23.08,0,0,0,.01.01.02.26.36.64.62,1.05.74l4.75,8.05c.35.6.91,1.05,1.55,1.29.05.09.1.17.16.25.06.08.12.16.19.23.02.59.21,1.16.57,1.65.27.37.61.66,1,.87ZM44.42,66.57l8.57,3.72c.63.28,1.36.32,2.01.13.09.04.18.08.27.11.09.03.19.06.29.07.36.46.86.81,1.42,1,.42.14.88.18,1.33.12.23.25.52.45.85.58,0,.17,0,.33,0,.49s0,.33,0,.49c-.32.13-.61.33-.85.58-.44-.06-.9-.02-1.32.12-.57.18-1.07.54-1.43,1-.1.02-.2.04-.3.07-.09.03-.18.07-.27.11-.66-.19-1.38-.15-2.01.13l-8.57,3.72c-.21-.08-.44-.12-.67-.12-.21,0-.42.04-.62.1,0,0-.02,0-.02,0-.08-.03-.16-.05-.25-.07-.4-2.01-.61-4.07-.61-6.15s.2-4.14.61-6.15c.08-.02.16-.04.25-.07,0,0,.01,0,.02,0,.42.14.88.13,1.29-.02ZM45.24,85.55s.01,0,.02,0c.42-.14.79-.41,1.04-.77l9.12-2.03c.68-.15,1.28-.53,1.7-1.07.1-.02.19-.04.29-.07.09-.03.19-.07.27-.11.56.16,1.18.15,1.74-.03.44-.14.82-.37,1.14-.68.34.07.7.06,1.03-.03.18.27.37.53.58.79-.19.3-.3.63-.35.98-.39.21-.74.51-1,.87-.35.48-.55,1.06-.57,1.65-.07.07-.14.15-.19.23-.06.08-.11.16-.15.25-.64.23-1.2.69-1.55,1.29l-4.75,8.05c-.42.13-.79.39-1.06.75,0,0,0,0,0,0-.08.02-.16.05-.23.08-.32-.3-.64-.6-.94-.9-2.64-2.64-4.75-5.68-6.29-9.04.05-.07.11-.13.16-.21Z"/><path class="cls-1" d="M180.03,65.99c1.55,4.7,2.29,6.84,6.33,6.65,1.4-.07,2.46-.52,3.15-1.33,1.17-1.37.96-3.29.79-4.83-.04-.42-.11-1-.1-1.37.35.12.81.53,1.46,1.12.57.53,1.22,1.12,2.05,1.66,4.71,3.01,9.18,5.02,15.68,5.02,13.76,0,22.31-7.71,22.31-20.12,0-13.73-9.59-18.24-25.08-21.06-11.73-2.09-15.12-4.02-15.12-8.6,0-3.23,1-7.53,9.63-7.53,5.84,0,10.25,1.81,14.3,5.87.77.77,1.41,1.47,1.97,2.1,1.95,2.15,3.35,3.71,6.46,3.71,3.74,0,7.74-1.37,7.74-5.2,0-2.04-.88-4.7-2.78-8.4-.5-.93-.9-1.74-1.25-2.45-1.44-2.89-2.31-4.68-5.46-4.44-3.58.23-3.81,3.57-3.93,5.37-.02.25-.04.58-.07.85-.16-.09-.33-.25-.64-.57-.3-.31-.66-.66-1.16-1.08-3.8-3.06-7.71-5.1-14.39-5.1-13.5,0-22.23,7.38-22.23,18.8,0,12.4,9.49,16.76,23.75,19.48,14.11,2.66,16.63,5.07,16.63,10.53,0,7.7-6.42,8.84-10.25,8.84-7.05,0-12.57-3.45-15.38-6.68l-1.5-1.76c-2.68-3.19-3.91-4.64-7.26-4.64-3.81,0-8.18.6-8.18,5.28,0,2.06.61,4.23,1.73,7.51l.79,2.35Z"/><path class="cls-1" d="M246.49,17.38c.49.11.96.21,1.38.35.05.02.11.03.16.04,1.21.23,1.62.31,1.71,5.74.17,6.96.26,25.77-.09,32.22l-.02.65c-.16,4.52-.25,4.76-2.08,5.32l-1.22.36c-2.53.72-4.93,1.4-4.93,4.64.1,4.93,2.98,4.91,8.17,4.84l28.09-.02c3.04,0,4.79.48,6.34.91,1.24.34,2.41.67,3.93.67,4.59,0,5.28-3.02,6.66-9.04.26-1.09.51-2.11.75-3.05.68-2.7,1.22-4.84,1.22-6.54,0-2.46-.57-5.29-5.02-5.29-3.42,0-4.32,2.78-5.69,6.98l-.66,2.01c-1.23,3.45-1.33,3.73-10.93,3.73h-3.63c-4.97.04-7.96.06-8.8-.78-.65-.65-.62-2.6-.57-5.56.01-.9.03-1.91.03-3.03s-.01-2.23-.03-3.16c-.04-3.09-.06-5.13.52-5.72.6-.6,2.76-.59,6.05-.58h1.77c.89,0,1.67,0,2.34-.02,3.65-.06,3.64-.05,4.21,1.76.92,2.46,1.87,5.02,5.73,4.76,1.27-.09,2.25-.56,2.89-1.4,1.58-2.05.87-5.83-.35-12.27l-.09-.46c-.95-5.04-1.58-8.36-4.91-8.36-4.41,0-4.41,2.82-4.41,5.84.03,1.18-.06,1.5-.1,1.57-.31.25-2.04.24-3.88.23h-1.61c-1.8,0-3.27.05-4.47.1-1.69.07-3.29.13-3.58-.15-.35-.34-.32-2.29-.3-4.56,0-.83.02-1.77.02-2.84v-2.11c-.02-4.27-.03-6.85.7-7.58.59-.59,2.47-.58,5.3-.57h1.62s4.24-.01,4.24-.01c9.06-.07,9.81-.07,11.77,3.67.28.51.56,1.07.84,1.65,1.43,2.89,3.21,6.54,6.48,6.28,3.15-.22,4.68-1.77,4.68-4.76,0-2.03-.93-4.55-2.34-8.37l-.28-.77c-2.48-6.47-3.82-8.35-7.92-8.35-1.3,0-2.33.28-3.32.55-1.07.29-2.17.59-3.81.59-3.57.06-10.01-.01-16.56-.08-5.03-.05-10.13-.1-14.06-.1s-7.13.41-7.13,5.37c0,3.56,3.25,4.27,5.18,4.7Z"/><path class="cls-1" d="M365.92,62.23l-.93-.34s-.02,0-.04-.01c-1.99-.68-2.1-.87-4.01-6.83l-.4-1.24c-2.31-7.09-4.99-14.67-7.36-21.36-1.81-5.1-3.49-9.88-4.84-13.92-.64-1.96-1.05-3.54-1.38-4.82-1.63-6.35-2.5-6.33-12.84-6.31h-2.68c-1.34,0-2.57,0-3.7-.02-5.41-.06-8.37-.1-10.07,1.59-.85.84-1.26,2.03-1.26,3.64,0,3.58,3.2,4.07,5.76,4.47l1.19.19c1.16.17,1.38.36,1.4.38.14.31-.19,1.5-.98,3.54-.83,2.11-1.93,4.93-3.2,8.17-3.01,7.7-6.94,17.79-10.4,26.31-2.09,5.22-2.46,5.5-4.32,6.33-.47.2-.9.36-1.3.5-1.89.7-3.68,1.35-3.68,4.6,0,4.98,3.84,4.99,9.15,5.01l3.91.02c.5,0,.98,0,1.43,0,5.17,0,7.65-.11,9.09-1.55,1-.99,1.11-2.36,1.11-3.3,0-2.79-2.24-3.3-3.72-3.63-.43-.1-.89-.2-1.52-.4-1.1-.2-1.74-.38-1.85-.44-.08-.38.52-1.95.77-2.61.44-1.12.82-2.23,1.2-3.32.3-.88.6-1.74.91-2.56,1.26-3.26,1.28-3.27,7.1-3.13,1.44.03,3.2.07,5.34.07,2.32,0,4.2-.04,5.74-.07q6.04-.12,7.11,3.06l1.66,5.25c.49,1.61.67,2.54.53,2.78-.06.1-.38.31-1.98.67-.47.14-.91.26-1.32.37-2.12.58-4.31,1.18-4.31,3.89,0,.96.12,2.37,1.14,3.38,1.56,1.55,4.39,1.52,10.02,1.48l3.52-.02h2.16c8.55.04,11.71.03,11.81-5.28,0-3.09-1.94-3.78-3.99-4.51ZM343.72,43.07c-.42.29-2.56.25-4.82.19-1.3-.03-2.83-.06-4.64-.06-2.22,0-4.02.06-5.47.12-1.8.06-3.5.12-3.71.18-.06-.41.55-1.98,1.13-3.5l.34-.89c2.48-6.37,4.48-11.94,6.59-17.84l.65-1.85c.37-1.06.75-2.15,1.07-2.33.57,0,.74.28,1.83,4.08l.13.47c1.13,3.76,3.66,11.85,5.64,17.53.6,1.67,1.29,3.56,1.25,3.9Z"/><path class="cls-1" d="M453.23,21.87l.22-.85q.77-2.92,2.52-3.45l.79-.22c2.02-.55,4.31-1.17,4.31-4.84,0-1.7-.31-3.77-2.7-4.63-1.58-.57-3.79-.57-7.48-.57h-1.11c-5.19,0-8.24,0-10.28.53-2.4.63-3.47,2.07-3.47,4.66,0,3.59,2.67,4.08,5.25,4.56.43.08.88.16,1.36.26.53.11.84.2.89.22.19.45-.35,2.77-.53,3.53-1.49,6.24-3.72,14.05-6.53,23.94-.95,3.36-1.97,6.92-3.03,10.68-.4,1.44-.64,2.62-.83,3.56-.11.54-.22,1.12-.31,1.49-.13-.5-.25-1.26-.36-1.96-.17-1.08-.38-2.39-.73-3.9-.76-3.35-2.3-8.86-3.93-14.69-1.97-7.06-4.21-15.06-5.46-20.68-.33-1.45-.19-1.8-.14-1.87.02-.04.2-.23,1.25-.4,2.41-.43,5.42-.97,5.42-4.91,0-.98-.12-2.41-1.14-3.43-1.61-1.6-4.56-1.59-11.07-1.59h-2.43c-5.15.01-8.26,0-10.27.54-2.35.62-3.39,2.06-3.39,4.66,0,3.67,2.86,4.18,5.63,4.68l.31.06c.73.13.85.26.87.29.1.16.25.82-.53,3.5-2.2,7.75-4.71,16.65-8.96,32.67-.48,1.8-.81,3.26-1.08,4.42-.25,1.07-.48,2.09-.68,2.66-.14-.47-.29-1.2-.42-1.88-.22-1.09-.49-2.46-.94-4.07-.48-1.78-1.19-4.36-2.01-7.36-2.37-8.65-5.62-20.5-7.37-27.62-.35-1.44-.17-1.92-.08-2.07.12-.19.46-.34,1.05-.45.34-.07.68-.13,1.02-.19,2.1-.36,4.98-.86,4.98-4.63,0-2.54-1.17-4.03-3.68-4.67-2.09-.53-5.21-.53-9.87-.53h-.6c-9.57,0-13.53,0-13.53,5.99,0,2.98,2.37,3.7,4.1,4.22.31.09.63.19.93.29,1.33.49,1.88.69,2.72,4.19,2.59,11.41,8.76,33.37,12.22,44.84,1.68,5.56,3,5.99,7.93,5.98.22,0,.44,0,.67,0h1.29c5.65,0,6.67-.45,8.31-6.63,5.52-20.57,6.07-22.5,6.84-25.17.41-1.43.89-3.09,2.2-7.82.44-1.63.7-2.94.89-3.98.18,1.09.45,2.53.9,4.3.59,2.45,1.75,6.56,3.09,11.33,1.86,6.59,4.17,14.8,5.95,22.02,1.42,5.87,3.87,5.96,9.45,5.96h1.34c5.07.03,6.47-.22,8.21-6.45,3.05-11.02,5.98-21.97,8.53-31.5,1.27-4.74,2.45-9.13,3.49-13.01Z"/><path class="cls-1" d="M497.57,5.73c-9.62,0-17.88,3.23-23.88,9.32-6.35,6.35-9.84,15.42-9.84,25.54,0,9.51,3.07,17.7,8.86,23.69,6.03,6.22,14.54,9.51,24.59,9.51s18.05-3.13,23.87-9.06c5.86-5.87,8.96-14.06,8.96-23.7,0-10.84-3.5-20.25-9.83-26.5-5.66-5.76-13.52-8.8-22.74-8.8ZM518.53,43.66c0,5.72-1.9,10.87-5.35,14.48-3.39,3.38-8.09,5.24-13.24,5.24-6.71,0-13.54-3.13-17.83-8.16-4.05-4.76-6.37-11.51-6.37-18.5,0-5.89,2.01-11.33,5.51-14.92,3.65-3.65,8.04-5.42,13.42-5.42,6.6,0,13.01,2.95,17.13,7.89,4.27,5.09,6.73,12.15,6.73,19.38Z"/><path class="cls-1" d="M596.58,56.64c-1.74.2-2.27,1.69-2.62,2.68-.45,1.28-.73,2.05-2.58,2.05-2.04,0-3.7-1.63-6.18-10-1.23-3.97-3-6.66-5.62-8.5-.94-.59-1.69-.94-2.26-1.18.1-.03.2-.05.29-.07,1.26-.31,2.98-.73,5.1-1.74,5.94-2.92,9.21-8.34,9.21-15.25,0-11.37-7.27-17.13-21.61-17.13-2.91,0-5.91.02-8.89.05-6.73.05-13.71.11-19.31-.13-2.45-.12-4.08.33-5.16,1.37-1.34,1.28-1.49,3.2-1.49,4.53,0,3.16,2.9,3.57,5.01,3.88.72.1,1.49.21,2.24.41,1.33.34,1.61.42,1.7,6.27.05,4,.29,24.32,0,31.8-.18,5.31-.56,5.42-2.15,5.86l-.68.18c-3.22.85-5.77,1.53-5.77,4.62,0,5.46,3.68,5.46,14.59,5.46,8.28,0,13.71-.35,13.71-4.97.13-2.99-1.53-4.04-4.99-5.06q-3.14-.52-3.1-6.02l.02-2.84v-2.18c-.03-2.83-.04-4.87.42-5.33.4-.39,2.07-.38,4.18-.37h1.52c5.97,0,8.14,1.29,10.11,9.32,3.17,13.28,7.39,17.98,16.13,17.98,6.84,0,11.25-4.9,11.25-12.48,0-1.18-.33-2.06-.97-2.62-.38-.33-1.06-.7-2.1-.55ZM555.89,23.47c-.06-3.25-.11-5.4.51-6.02.55-.56,2.31-.63,4.98-.63.45,0,.93,0,1.43,0,1.01,0,2.13.01,3.38,0,11.88,0,13.41,5.29,13.41,9.9,0,4.14-1.36,9.63-13.15,9.63h0c-1.46.01-2.74.04-3.87.06-3.33.07-5.54.11-6.13-.47-.56-.56-.54-2.54-.52-5.55l.02-2.53c0-1.68-.03-3.14-.05-4.39Z"/><path class="cls-1" d="M657.81,6.08c-1.62,0-2.72.4-3.79.79-1.12.41-2.18.79-4.02.79h-31.95c-2.15,0-3.32-.39-4.45-.77-1.07-.36-2.18-.73-3.88-.73-4.22,0-5.63,2.68-7.35,9.09l-.28,1.03c-1.19,4.43-2.04,7.62-2.04,9.91,0,4.08,2.64,4.93,4.85,4.93,4.4,0,6.03-3.45,8.47-10.77l.26-.8c.65-2.01.66-2.02,4.59-1.96l2.75.02q6.82,0,6.82,2v35.81c0,4.95-.33,5.06-3.37,6.08-3.85,1.03-6.9,1.83-6.9,5.77,0,4.67,3.04,4.67,15.82,4.67h3.06c.89.02,1.72.03,2.51.03,4.65,0,7.6-.22,9.26-1.87.83-.82,1.25-1.95,1.25-3.35,0-4.12-3.17-4.76-6.53-5.45l-.7-.14c-2.28-.64-2.51-.71-2.51-5.91V20.49q0-2.88,4.9-2.88c2.06,0,3.67-.05,4.95-.08,3.9-.12,3.92-.11,4.73,2.18l.21.6c2.37,6.44,4.37,11,8.63,11,2.94,0,4.85-2.08,4.85-5.28,0-2.42-.81-5.95-2.6-11.43-1.67-5.27-2.93-8.51-7.51-8.51Z"/><path class="cls-1" d="M678.45,17.08l1.04.16c1.93.41,2.09.44,2.17,7.47v8.45c.03,8.32.04,16.93-.09,21.46-.09,6.63-.27,6.69-2.49,7.32-3.06.81-5.71,1.5-5.58,5.07,0,1.45.37,2.49,1.15,3.26,1.48,1.47,4.17,1.7,9.47,1.7,1.11,0,2.33-.01,3.67-.02h1.19c7.8-.09,12.51-.14,12.64-5.08.11-3.3-2.07-4.03-4.83-4.95l-1.04-.35c-2.33-.55-2.38-.56-2.38-6.06v-3.5c.01-3.45.01-5.73.43-6.45.22-.38,1.28-.38,3.32-.39h17.33c1.18-.02,2.26-.02,2.52.24.57.58.55,3.7.51,8.43v1.67q-.01,6.15-2.37,6.79c-2.92.87-5.68,1.69-5.54,4.88,0,.96.12,2.36,1.14,3.36,1.46,1.44,3.88,1.41,8.32,1.34,1.36-.02,2.91-.05,4.69-.03h2.06c5.98.01,9.06.03,10.7-1.61,1.09-1.08,1.21-2.62,1.21-3.68,0-3.64-2.73-4.03-5.37-4.4l-.44-.06c-1.93-.42-2.09-.46-2.09-7.56,0-5.17-.01-9.75-.02-13.79-.02-6.8-.03-12.07.02-16.03.08-6.76.08-6.79,2.34-7.5,3.08-.77,5.74-1.45,5.74-5.29.03-1.21-.29-2.14-.99-2.86-1.7-1.75-5.45-1.94-13.61-1.94-8.8.08-13.4.37-13.52,5.69-.1,3.45,2.42,3.96,4.44,4.38.42.08.86.18,1.31.29q2.41.65,2.32,6.6v2.98q-.04,8.59-4.02,8.59h-16.5c-1.33,0-2.55-.03-2.92-.4-.63-.63-.61-3.37-.59-7.52v-3.3q.01-6.27,2.37-6.99l.98-.36c2.6-.95,4.66-1.71,4.66-4.96-.11-4.86-3.86-4.86-11.34-4.82h-2.01s-1.75-.01-1.75-.01c-7.43-.06-10.51-.1-12.21,1.59-1.04,1.03-1.17,2.46-1.17,3.45,0,4,2.61,4.38,5.13,4.75Z"/><path class="cls-1" d="M812.19,12.68c0-5.24-3.85-5.28-11.5-5.37h-.5c-7.53-.08-10.95-.1-12.67,1.6-.73.72-1.08,1.69-1.08,2.98,0,3.62,2.74,4.19,5.38,4.73,1.73.36,2.06.64,2.1.65.02.18-.13.76-1.38,2.61-2.76,4.14-5.91,8.32-8.9,12.21-.82,1.06-1.46,2.01-2,2.82-.55.82-1.38,2.05-1.66,2.05-.32,0-.37,0-1.33-1.56-.24-.39-.52-.85-.86-1.36-.58-.93-1.44-2.24-2.42-3.74-2.31-3.53-5.18-7.92-6.77-10.79-.84-1.48-.88-1.91-.91-1.91.07-.07.38-.27,1.75-.55,1.46-.3,5.91-1.22,5.91-4.21,0-1.11-.13-2.72-1.26-3.84-1.74-1.73-4.79-1.72-11.56-1.71h-2.12s-3.07,0-3.07,0c-5.78-.04-8.92-.06-10.58,1.59-.75.75-1.12,1.76-1.12,3.09,0,4.14,2.02,4.73,4.36,5.42l1.07.33c2.87.93,3.38,1.4,6.1,5.56.9,1.37,2.57,3.94,4.34,6.65,2.96,4.56,6.03,9.27,6.48,9.9l.65.88c2.91,3.95,3.59,4.89,3.59,14.1,0,6.71-.58,6.87-2.5,7.4-.67.18-1.29.32-1.84.44-2.14.48-4.35.98-4.35,3.57,0,1.67.44,2.92,1.34,3.81,1.65,1.64,4.43,1.85,9.18,1.85.76,0,1.57,0,2.43-.01h3.05s1.57-.01,1.57-.01c6.17,0,9.91.02,11.77-1.83.77-.77,1.16-1.81,1.16-3.11,0-4.06-2.7-4.55-6.66-5.27q-2.03-.34-2.03-6.14v-.53c0-9.7.09-10.56,3.96-15.66,1.66-2.18,9.1-12.69,11.98-17,.37-.55.67-1.03.94-1.44q1.49-2.33,5.65-3.49c3-.84,4.33-2.3,4.33-4.71Z"/><path class="cls-1" d="M242.23,92.87c0-5.24-3.84-5.29-11.51-5.37h-.5c-7.53-.08-10.95-.1-12.67,1.6-.73.72-1.08,1.69-1.08,2.98,0,3.62,2.74,4.19,5.38,4.73,1.73.36,2.06.64,2.1.65.02.18-.13.76-1.39,2.61-2.77,4.15-5.91,8.33-8.9,12.21-.82,1.06-1.46,2.01-2.01,2.82-.55.82-1.38,2.05-1.66,2.05-.32,0-.37,0-1.33-1.56-.24-.39-.53-.85-.86-1.37-.59-.94-1.46-2.27-2.45-3.79-2.3-3.51-5.16-7.89-6.73-10.74-.85-1.48-.88-1.91-.91-1.91.07-.07.38-.27,1.75-.55,1.46-.3,5.91-1.22,5.91-4.21,0-1.11-.13-2.72-1.26-3.84-1.74-1.73-4.8-1.69-11.56-1.71h-2.12s-3.07,0-3.07,0c-5.76-.03-8.92-.06-10.58,1.59-.75.75-1.12,1.76-1.12,3.09,0,4.14,2.02,4.73,4.36,5.43l1.07.33c2.87.93,3.39,1.4,6.1,5.55.92,1.4,2.65,4.06,4.46,6.84,3.57,5.49,5.95,9.14,6.37,9.71l.65.89c2.9,3.95,3.59,4.89,3.59,14.09,0,6.71-.58,6.87-2.5,7.4-.67.18-1.29.32-1.84.45-2.14.48-4.34.98-4.34,3.57,0,1.67.44,2.92,1.34,3.81,1.65,1.64,4.44,1.85,9.18,1.85.76,0,1.56,0,2.42-.01h3.04s1.58-.01,1.58-.01c6.2,0,9.92.02,11.77-1.83.77-.77,1.16-1.81,1.16-3.11,0-4.06-2.7-4.55-6.66-5.27q-2.03-.34-2.03-6.14v-.53c0-9.7.09-10.56,3.96-15.66,1.65-2.17,9.09-12.67,11.98-17,.37-.55.67-1.03.93-1.44q1.49-2.33,5.65-3.49c3-.84,4.34-2.29,4.34-4.71Z"/><path class="cls-1" d="M301.94,142.43l-.94-.34s-.02,0-.04-.01c-1.99-.69-2.1-.88-4-6.84l-.4-1.24c-2.31-7.08-4.99-14.65-7.35-21.33-1.81-5.12-3.5-9.9-4.85-13.96-.64-1.96-1.05-3.54-1.38-4.82-1.63-6.35-2.44-6.34-12.85-6.32h-2.67c-1.34,0-2.57,0-3.69-.02-5.4-.06-8.38-.1-10.08,1.59-.85.84-1.26,2.03-1.26,3.64,0,3.58,3.19,4.07,5.75,4.47l1.2.19c1.16.17,1.38.36,1.4.38.14.31-.19,1.51-.98,3.54-.84,2.13-1.96,5-3.25,8.29-3,7.69-6.91,17.71-10.35,26.19-2.09,5.21-2.46,5.5-4.32,6.33-.47.2-.91.36-1.3.5-1.89.7-3.68,1.35-3.68,4.6,0,4.98,3.84,4.99,9.16,5.01l3.89.02c.5,0,.97,0,1.43,0,5.18,0,7.67-.11,9.1-1.55,1-1,1.11-2.36,1.11-3.3,0-2.79-2.24-3.3-3.71-3.63-.43-.1-.89-.2-1.52-.4-1.1-.2-1.74-.38-1.85-.44-.08-.38.52-1.95.77-2.61.44-1.12.82-2.24,1.2-3.33.3-.88.6-1.74.91-2.56q1.26-3.26,7.1-3.13c1.45.03,3.2.07,5.34.07,2.32,0,4.2-.04,5.75-.07q6.05-.12,7.11,3.06l1.67,5.25c.49,1.61.66,2.55.53,2.78-.06.1-.38.31-1.98.67-.47.14-.91.26-1.32.38-2.12.58-4.31,1.18-4.31,3.89,0,.97.12,2.37,1.14,3.38,1.56,1.55,4.39,1.53,10.03,1.48l3.5-.02h2.14c8.53.04,11.72.03,11.83-5.29,0-3.09-1.94-3.78-3.99-4.51ZM279.75,123.26c-.42.29-2.56.24-4.82.19-1.3-.03-2.84-.06-4.65-.06-2.22,0-4.03.06-5.48.12-1.8.06-3.5.12-3.7.18-.06-.41.55-1.98,1.13-3.49l.34-.89c2.41-6.18,4.41-11.74,6.59-17.84l.65-1.84c.37-1.07.75-2.17,1.08-2.34.57,0,.74.28,1.83,4.08l.13.47c1.13,3.77,3.66,11.86,5.64,17.53.63,1.75,1.29,3.56,1.25,3.9Z"/><path class="cls-1" d="M364.67,92.93c-1.57-3.67-2.43-5.69-5.66-5.69-1.43,0-2.54.4-3.31,1.19-1.26,1.3-1.19,3.22-1.15,4.63,0,.19.01.42.02.64-.13-.13-.29-.31-.52-.56l-.43-.48c-3.76-4.17-9.33-6.47-15.67-6.47-8.29,0-15.9,3.1-21.42,8.71-6.24,6.23-9.67,15.24-9.67,25.37s3.03,17.85,8.78,23.77c5.91,6.1,14.3,9.33,24.24,9.33,16.15,0,22.59-7.91,24.99-12.63,1.02-2.05.77-3.96-.65-4.99-1.67-1.22-3.29-.11-4.86.97-.52.36-1.11.76-1.77,1.15-3.02,1.76-8.08,3.86-14.99,3.86-6.5,0-11.73-1.98-15.97-6.04-4.67-4.68-7.36-11.52-7.36-18.78,0-6.17,2.08-11.84,5.77-15.62,2.4-2.94,7.79-5.07,12.81-5.07,5.61,0,11.28,2.88,15.54,7.89l.81.96c3.48,4.19,5.4,6.49,10.78,4.87,2.61-.79,3.87-2.59,3.87-5.49,0-2.17-1.01-4.5-2.66-8.07-.62-1.33-1.11-2.48-1.53-3.46Z"/><path class="cls-1" d="M434.38,97.41c3.08-.77,5.73-1.45,5.73-5.29.03-1.21-.29-2.14-.98-2.86-1.7-1.75-5.45-1.94-13.61-1.94-8.8.08-13.4.37-13.52,5.69-.1,3.45,2.42,3.96,4.44,4.38.42.08.86.18,1.31.29q2.41.65,2.32,6.6v2.98q-.04,8.59-4.02,8.59h-16.5c-1.33,0-2.55-.03-2.92-.4-.63-.63-.61-3.37-.58-7.52v-3.3q.01-6.27,2.37-7l.98-.36c2.6-.95,4.66-1.71,4.66-4.96-.11-4.86-3.85-4.85-11.34-4.82h-2.01s-1.75-.01-1.75-.01c-7.43-.07-10.51-.1-12.21,1.59-1.04,1.03-1.17,2.46-1.17,3.45,0,4,2.61,4.38,5.13,4.75l1.04.16c1.92.41,2.08.44,2.17,7.47v8.45c.03,8.32.04,16.93-.09,21.46-.08,6.63-.27,6.68-2.49,7.32-3.06.81-5.71,1.5-5.58,5.07,0,1.45.37,2.49,1.15,3.26,1.48,1.47,4.16,1.7,9.44,1.7,1.12,0,2.36-.01,3.73-.02h1.15c7.8-.09,12.51-.13,12.64-5.08.11-3.31-2.07-4.03-4.83-4.95l-1.05-.35c-2.33-.55-2.37-.56-2.37-6.06v-3.5c.01-3.45.01-5.73.43-6.45.22-.38,1.24-.35,3.32-.39h17.33c1.22-.02,2.26-.02,2.52.24.57.57.55,3.69.51,8.41v1.69q-.01,6.15-2.37,6.79c-2.92.87-5.68,1.69-5.54,4.88,0,.96.12,2.36,1.14,3.36,1.46,1.44,3.89,1.4,8.31,1.34,1.36-.02,2.92-.05,4.7-.03h2.06c6.04.03,9.07.03,10.71-1.61,1.08-1.08,1.21-2.61,1.21-3.67,0-3.64-2.73-4.03-5.36-4.41l-.44-.06c-1.93-.42-2.09-.46-2.09-7.56,0-5.17-.01-9.75-.02-13.79-.02-6.8-.03-12.07.02-16.03.08-6.76.08-6.79,2.34-7.5Z"/><path class="cls-1" d="M501.61,86.27c-1.62,0-2.72.4-3.79.79-1.12.41-2.18.79-4.02.79h-31.95c-2.15,0-3.32-.39-4.45-.77-1.07-.36-2.18-.73-3.88-.73-4.22,0-5.63,2.68-7.35,9.09l-.27,1c-1.19,4.44-2.06,7.66-2.06,9.95,0,4.08,2.64,4.94,4.85,4.94,4.4,0,6.03-3.45,8.47-10.77l.26-.8c.65-2.01.67-2,4.59-1.96l2.74.02q6.82,0,6.82,2v35.81c0,4.95-.33,5.06-3.37,6.08-3.85,1.03-6.9,1.84-6.9,5.77,0,4.67,3.04,4.67,15.82,4.67h3.07c.89.02,1.72.03,2.51.03,4.64,0,7.58-.22,9.25-1.87.83-.82,1.25-1.95,1.25-3.35,0-4.12-3.17-4.76-6.53-5.45l-.7-.14c-2.28-.64-2.51-.71-2.51-5.91v-34.75q0-2.88,4.9-2.88c2.06,0,3.67-.05,4.94-.08q3.92-.11,4.73,2.18l.21.59c2.36,6.44,4.37,11,8.63,11,2.94,0,4.85-2.08,4.85-5.29,0-2.42-.8-5.95-2.6-11.43-1.67-5.27-2.93-8.51-7.51-8.51Z"/><path class="cls-1" d="M572.64,111.92h0c-11.73-2.09-15.12-4.02-15.12-8.6,0-3.23,1-7.53,9.64-7.53,5.83,0,10.24,1.81,14.3,5.87.77.77,1.41,1.47,1.97,2.1,1.95,2.15,3.35,3.71,6.46,3.71,3.74,0,7.74-1.37,7.74-5.2,0-2.04-.88-4.7-2.78-8.4-.5-.93-.91-1.75-1.26-2.45-1.44-2.89-2.32-4.66-5.45-4.44-3.59.23-3.81,3.58-3.93,5.37-.01.25-.04.59-.07.85-.16-.09-.33-.25-.64-.57s-.66-.66-1.17-1.08c-3.8-3.06-7.7-5.1-14.38-5.1-13.5,0-22.23,7.38-22.23,18.8,0,12.4,9.49,16.76,23.75,19.48,14.11,2.66,16.63,5.07,16.63,10.53,0,7.7-6.42,8.85-10.25,8.85-7.05,0-12.57-3.45-15.38-6.68l-1.49-1.76c-2.68-3.19-3.91-4.64-7.26-4.64-3.81,0-8.18.6-8.18,5.28,0,2.07.61,4.24,1.73,7.51l.79,2.35c1.55,4.7,2.25,6.86,6.33,6.65,1.39-.07,2.46-.52,3.15-1.33,1.17-1.37.96-3.29.79-4.83-.04-.42-.11-1-.1-1.37.35.12.82.53,1.46,1.12.57.53,1.22,1.12,2.04,1.66,4.71,3.01,9.17,5.02,15.68,5.02,13.76,0,22.31-7.71,22.31-20.12,0-13.73-9.59-18.24-25.07-21.06Z"/><path class="cls-1" d="M633.11,97.19h1.62s4.24-.01,4.24-.01c9.05-.07,9.81-.07,11.78,3.67.28.51.56,1.07.84,1.65,1.43,2.88,3.19,6.5,6.49,6.28,3.14-.22,4.67-1.77,4.67-4.76,0-2.04-.94-4.58-2.36-8.43l-.26-.71c-2.48-6.47-3.82-8.35-7.92-8.35-1.3,0-2.33.28-3.32.55-1.07.29-2.17.59-3.81.59-3.57.05-10.01-.01-16.56-.08-5.03-.05-10.13-.1-14.05-.1s-7.13.41-7.13,5.37c0,3.56,3.25,4.27,5.18,4.7.49.11.96.21,1.54.39,1.21.23,1.62.31,1.71,5.74.18,6.99.26,25.81-.09,32.22l-.02.65c-.16,4.52-.25,4.76-2.08,5.32l-1.22.36c-2.53.72-4.93,1.4-4.93,4.64.1,4.93,2.94,4.9,8.16,4.84l28.1-.02c3.04,0,4.79.48,6.34.91,1.24.34,2.41.67,3.93.67,4.59,0,5.28-3.02,6.66-9.04.26-1.1.52-2.12.75-3.07.68-2.69,1.21-4.82,1.21-6.51,0-2.46-.57-5.28-5.02-5.28-3.42,0-4.32,2.78-5.69,6.99l-.66,2c-1.23,3.45-1.33,3.74-10.94,3.74h-3.63c-4.96.05-7.96.06-8.8-.78-.65-.66-.62-2.6-.57-5.56.01-.9.03-1.91.03-3.03s-.01-2.23-.02-3.16c-.04-3.09-.07-5.14.52-5.72.6-.6,2.78-.59,6.05-.58h1.77c.89,0,1.66,0,2.34-.02,3.67-.05,3.65-.05,4.22,1.76.92,2.46,1.89,4.99,5.73,4.76,1.27-.09,2.25-.56,2.89-1.4,1.58-2.05.86-5.83-.35-12.27l-.09-.47c-.95-5.03-1.58-8.36-4.91-8.36-4.41,0-4.41,2.82-4.41,5.85.03,1.18-.06,1.5-.1,1.57-.31.25-2.05.24-3.89.23h-1.61c-1.8,0-3.27.05-4.47.1-1.69.07-3.29.13-3.57-.15-.35-.34-.33-2.29-.3-4.56.01-.83.02-1.77.02-2.84v-2.11c-.02-4.27-.03-6.85.7-7.58.59-.59,2.45-.59,5.3-.57Z"/><path class="cls-1" d="M732.68,136.83c-1.74.2-2.27,1.7-2.62,2.68-.45,1.28-.72,2.05-2.58,2.05-2.04,0-3.7-1.63-6.18-10-1.22-3.96-2.99-6.65-5.62-8.5-.94-.59-1.69-.94-2.26-1.18.1-.02.2-.05.3-.07,1.26-.31,2.98-.73,5.1-1.74,5.94-2.92,9.21-8.34,9.21-15.25,0-11.37-7.27-17.13-21.61-17.13-2.91,0-5.9.02-8.88.05-6.74.05-13.72.11-19.33-.13-2.42-.11-4.07.33-5.16,1.37-1.34,1.28-1.49,3.2-1.49,4.53,0,3.16,2.9,3.57,5.01,3.88.72.1,1.49.21,2.24.4,1.36.35,1.61.42,1.7,6.27.05,4,.28,24.32,0,31.8-.18,5.31-.56,5.42-2.14,5.86l-.68.18c-3.23.86-5.78,1.53-5.78,4.62,0,5.46,3.68,5.46,14.59,5.46,8.28,0,13.71-.35,13.71-4.97.13-2.99-1.53-4.04-4.99-5.06q-3.14-.52-3.1-6.02l.02-2.84v-2.18c-.03-2.83-.04-4.87.42-5.33.39-.4,2.04-.39,4.18-.37h1.51c5.97,0,8.14,1.29,10.11,9.32,3.17,13.28,7.39,17.99,16.13,17.99,6.84,0,11.25-4.9,11.25-12.48,0-1.18-.33-2.06-.97-2.62-.38-.33-1.06-.71-2.1-.56ZM692,103.66c-.06-3.25-.1-5.4.51-6.02.55-.55,2.3-.63,4.96-.63.46,0,.94,0,1.45,0,1.01,0,2.13.01,3.38,0,11.88,0,13.41,5.29,13.41,9.9,0,4.14-1.36,9.64-13.14,9.64h0c-1.46.01-2.75.04-3.87.06-3.34.07-5.54.11-6.14-.48-.56-.56-.54-2.54-.52-5.55v-2.53c.01-1.68-.01-3.14-.04-4.39Z"/><path class="cls-1" d="M795.35,87.51h-1.07s0-.01,0-.01c-8.84-.04-12.06.19-13.69,1.85-1.01,1.02-1.1,2.34-1.08,3.39.11,2.77,2.29,3.34,4.39,3.89.46.12.96.25,1.5.41,1.47.44,1.87.71,1.94.85.2.39-.42,2.12-1.08,3.95l-.28.79c-1.56,4.48-4.51,12.59-7.01,19.44-1.85,5.08-3.45,9.47-4.05,11.19-.68,1.93-1.19,3.44-1.58,4.62-.55,1.66-.99,2.97-1.08,3.21-.36-.34-1.06-2.57-2.02-5.66l-.41-1.32c-.83-2.74-2.24-6.95-3.82-11.64-2.12-6.31-4.53-13.45-6.19-19.09-.62-1.94-1.38-4.35-.98-5.05.26-.47,1.42-.79,2.32-1l.84-.23c3.29-.9,5.9-1.62,5.78-4.77-.11-4.88-4.03-4.87-13.51-4.83h-3.19s-2.23,0-2.23,0c-6.69-.02-9.73-.02-11.43,1.67-1.07,1.07-1.2,2.53-1.2,3.54,0,3.52,2.26,4.22,4.88,5.03l.68.21c2.1.59,2.45.92,4.59,7.51,4.52,14.32,10.19,30.62,14.04,41.6,1.48,4.76,3.46,5.4,6.64,5.4.37,0,.75,0,1.15-.02.7-.02,1.48-.04,2.32-.03,6.54.18,7.86.05,9.71-5.09,4.18-10.79,8.34-22.26,12.35-33.35l3.64-10.05.43-1.27c1.22-3.59,1.29-3.81,3.88-4.97l1.03-.51c1.94-.94,3.95-1.92,3.95-4.63,0-4.91-3.61-4.94-10.17-5.01Z"/><path class="cls-1" d="M834.45,97.41s.03,0,.05-.01l.33-.11c3.21-1.07,5.52-1.84,5.52-5.23-.11-4.62-3.27-4.64-13.72-4.72h-.96c-11.57,0-14.68,0-14.68,5.54,0,3.79,2.68,4.19,5.28,4.58l1.01.16c1.9.36,2.4.45,2.4,7.38v29.93c0,6.38-.62,6.53-2.68,7.05-3.35.92-6.01,1.65-6.01,5.07,0,1.04.12,2.36,1.1,3.32,1.34,1.33,3.61,1.55,8.83,1.55,1.12,0,2.38-.01,3.79-.02h1.93c5.39,0,8.35,0,10.29-.55,2.78-.8,3.16-2.84,3.16-4.74,0-3.46-2.65-4.06-4.78-4.54-.37-.08-.76-.17-1.17-.27-2.3-.57-2.65-.66-2.65-6.42v-30.1c0-6.98.39-7.1,2.96-7.84Z"/><path class="cls-1" d="M905.14,92.93c-1.57-3.67-2.43-5.69-5.66-5.69-1.43,0-2.54.4-3.31,1.19-1.26,1.3-1.2,3.22-1.15,4.63,0,.19.01.42.01.64-.13-.13-.29-.31-.52-.56l-.43-.48c-3.77-4.17-9.33-6.47-15.67-6.47-8.29,0-15.9,3.1-21.42,8.71-6.24,6.23-9.67,15.24-9.67,25.37s3.04,17.85,8.78,23.77c5.91,6.1,14.3,9.33,24.24,9.33,16.15,0,22.59-7.91,24.99-12.63,1.02-2.05.77-3.96-.64-4.99-1.68-1.22-3.3-.11-4.86.97-.53.36-1.11.76-1.77,1.15-3.02,1.76-8.08,3.86-14.99,3.86-6.5,0-11.73-1.98-15.97-6.04-4.68-4.68-7.36-11.52-7.36-18.78,0-6.17,2.08-11.84,5.78-15.62,2.4-2.94,7.79-5.07,12.81-5.07,5.61,0,11.28,2.88,15.55,7.89l.8.96c3.49,4.19,5.43,6.49,10.78,4.87,2.6-.79,3.87-2.59,3.87-5.49,0-2.17-1.01-4.5-2.66-8.07-.62-1.33-1.11-2.48-1.53-3.46Z"/><path class="cls-1" d="M943.58,97.19h1.62s4.24-.01,4.24-.01c9.05-.07,9.81-.07,11.78,3.67.28.51.56,1.07.84,1.65,1.43,2.88,3.18,6.5,6.49,6.28,3.14-.22,4.67-1.77,4.67-4.76,0-2.04-.94-4.58-2.36-8.43l-.26-.71c-2.48-6.47-3.82-8.35-7.92-8.35-1.3,0-2.33.28-3.32.55-1.07.29-2.17.59-3.81.59-3.58.05-10.01-.01-16.56-.08-5.03-.05-10.13-.1-14.05-.1s-7.13.41-7.13,5.37c0,3.56,3.25,4.27,5.18,4.7.49.11.96.21,1.54.39,1.21.23,1.62.31,1.71,5.74.18,6.99.26,25.81-.09,32.22l-.02.65c-.16,4.52-.25,4.76-2.08,5.32l-1.22.36c-2.53.72-4.93,1.4-4.93,4.64.1,4.93,2.94,4.9,8.16,4.84l28.1-.02c3.04,0,4.79.48,6.34.91,1.24.34,2.41.67,3.93.67,4.59,0,5.28-3.02,6.66-9.04.26-1.1.52-2.12.75-3.07.68-2.69,1.21-4.82,1.21-6.51,0-2.46-.57-5.28-5.02-5.28-3.42,0-4.32,2.78-5.69,6.99l-.66,2c-1.23,3.45-1.33,3.74-10.94,3.74h-3.63c-4.96.05-7.97.06-8.8-.78-.65-.66-.62-2.6-.57-5.56.01-.9.03-1.91.03-3.03s-.01-2.23-.02-3.16c-.04-3.09-.07-5.14.52-5.72.6-.6,2.78-.59,6.05-.58h1.77c.89,0,1.66,0,2.34-.02,3.67-.05,3.65-.05,4.22,1.76.92,2.46,1.93,4.99,5.73,4.76,1.27-.09,2.25-.56,2.89-1.4,1.58-2.05.86-5.83-.35-12.27l-.09-.47c-.95-5.03-1.58-8.36-4.91-8.36-4.41,0-4.41,2.82-4.41,5.85.03,1.18-.06,1.5-.1,1.57-.31.25-2.05.24-3.89.23h-1.61c-1.8,0-3.27.05-4.47.1-1.69.07-3.29.13-3.57-.15-.35-.34-.33-2.29-.3-4.56.01-.83.02-1.77.02-2.84v-2.11c-.02-4.27-.03-6.85.7-7.58.59-.59,2.44-.59,5.3-.57Z"/><path class="cls-1" d="M1010.8,111.92h0c-11.73-2.09-15.12-4.02-15.12-8.6,0-3.23,1-7.53,9.63-7.53,5.83,0,10.25,1.81,14.3,5.87.77.77,1.41,1.47,1.97,2.1,1.95,2.15,3.35,3.71,6.46,3.71,3.74,0,7.74-1.37,7.74-5.2,0-2.04-.88-4.7-2.78-8.4-.5-.93-.91-1.74-1.26-2.45-1.44-2.89-2.31-4.67-5.45-4.44-3.59.23-3.81,3.58-3.93,5.37-.01.25-.04.59-.07.85-.16-.09-.33-.25-.64-.57s-.66-.66-1.17-1.08c-3.8-3.06-7.7-5.1-14.38-5.1-13.5,0-22.23,7.38-22.23,18.8,0,12.4,9.49,16.76,23.75,19.48,14.11,2.66,16.63,5.07,16.63,10.53,0,7.7-6.42,8.85-10.25,8.85-7.05,0-12.57-3.45-15.38-6.68l-1.49-1.76c-2.68-3.19-3.91-4.64-7.26-4.64-3.81,0-8.18.6-8.18,5.28,0,2.06.61,4.23,1.74,7.51l.79,2.35c1.55,4.7,2.29,6.83,6.33,6.65,1.4-.07,2.46-.52,3.15-1.33,1.17-1.37.96-3.29.79-4.83-.04-.42-.11-1-.1-1.37.35.12.82.53,1.46,1.12.57.53,1.22,1.12,2.04,1.66,4.71,3.01,9.18,5.02,15.68,5.02,13.76,0,22.31-7.71,22.31-20.12,0-13.73-9.59-18.24-25.07-21.06Z"/><path class="cls-1" d="M74.55,157.19c-.78.16-1.58.16-2.35,0h0c-25.33-5.23-49.16-23.62-62.2-48C-1.27,88.15-.39,66.02.45,44.62c.28-7.09.57-14.43.43-21.71h0c-.04-2.32,1.28-4.44,3.39-5.42l9.12-4.23c38.12-17.68,81.84-17.69,119.96,0l9.12,4.23c2.1.98,3.43,3.1,3.39,5.42h0c-.14,7.28.15,14.61.43,21.7.85,21.4,1.72,43.54-9.53,64.57-13.04,24.38-36.88,42.77-62.2,48h0ZM15.98,24.96c-2.05.95-3.36,3.01-3.39,5.27-.07,5.03-.26,10-.45,14.85-.82,20.75-1.59,40.36,8.16,58.59,11,20.57,30.63,36.26,51.69,41.48.9.22,1.85.22,2.75,0,21.06-5.22,40.69-20.91,51.69-41.48,9.75-18.23,8.98-37.84,8.16-58.59-.19-4.85-.39-9.81-.45-14.84-.03-2.26-1.33-4.32-3.39-5.27l-2.33-1.08C93.44,7.65,53.3,7.65,18.32,23.88l-2.33,1.08Z"/></g></svg>